<?xml version="1.0" encoding="UTF-8"?>
<svg id="_レイヤー_2" xmlns="http://www.w3.org/2000/svg" version="1.1" viewBox="0 0 17.6 24.6">
  <!-- Generator: Adobe Illustrator 29.5.1, SVG Export Plug-In . SVG Version: 2.1.0 Build 141)  -->
  <defs>
    <style>
      .st0 {
        fill: #f07884;
      }
    </style>
  </defs>
  <g id="_レイヤー_1-2">
    <path class="st0" d="M16.1,24.6c-.6,0-1.1-.4-1.4-.9L5.6,2.1c-.3-.8,0-1.7.8-2,.8-.3,1.7,0,2,.8l9.1,21.5c.3.8,0,1.7-.8,2-.2,0-.4.1-.6.1Z"/>
    <path class="st0" d="M7.6,24.3c-.5,0-1-.2-1.3-.7-1.1-1.7-2.1-3.4-3.1-5.1-1-1.6-1.9-3.3-3-4.9-.5-.7-.3-1.6.4-2.1.7-.5,1.6-.3,2.1.4,1.1,1.7,2.1,3.4,3.1,5.1.9,1.6,1.9,3.3,3,4.9.5.7.3,1.6-.4,2.1-.3.2-.6.2-.8.2Z"/>
  </g>
</svg>