<?xml version="1.0" encoding="UTF-8"?><svg id="_レイヤー_1" xmlns="http://www.w3.org/2000/svg" viewBox="0 0 500 500"><defs><style>.cls-1{fill:#00587d;}</style></defs><path class="cls-1" d="M389.35,95.83c-.52.18-5.24.09-14.17-.26-8.93-.35-18.07.52-27.43,2.6-9.36,2.26-17.68,3.64-24.96,4.16-5.03.35-10.49,1.04-16.38,2.08-7.45,1.39-22.19,2.17-44.2,2.34-33.11.52-53.95,2.77-62.53,6.76-8.58,3.99-13.39,12.22-14.43,24.7-.87,9.53-2.69,20.02-5.46,31.46-8.49,34.15-12.74,56.85-12.74,68.12l3.9.26c8.15.52,24.61-.6,49.4-3.38,24.78-2.77,43.33-5.55,55.63-8.32,25.3-6.07,44.63-9.1,57.98-9.1,21.67,0,32.5,5.81,32.5,17.42,0,14.21-7.24,22.92-21.71,26.13-14.48,3.21-44.68,7.32-90.6,12.35-56.15,6.24-86.1,11.83-89.82,16.77-3.73,4.94-7.67,20.84-11.83,47.71-4.16,26.87-6.24,44.03-6.24,51.47v2.86c.87,8.67,6.41,13.61,16.64,14.82l4.68.26c9.53.52,20.89-.26,34.06-2.34l49.92-7.28c18.54-2.6,37.35-5.63,56.42-9.1,23.75-5.02,38.82-7.54,45.24-7.54,4.85,0,10.27,2.04,16.25,6.11,5.98,4.07,8.97,10.53,8.97,19.37,0,6.42-1.56,10.84-4.68,13.26-17.68,7.8-40.47,12.13-68.37,13-24.09.87-61.7,4.94-112.83,12.22-25.83,3.81-42.81,5.72-50.96,5.72-20.27,0-32.97-1.6-38.08-4.81-5.12-3.21-8.19-11.05-9.23-23.53l-1.04-8.84v-1.04c0-2.77,1.56-8.4,4.68-16.9,4.33-12.3,9.4-35.7,15.21-70.19,5.8-34.49,9.57-61.79,11.31-81.89.87-6.93,2.25-15.34,4.16-25.22,7.63-41.42,11.44-74.18,11.44-98.27,0-1.21-1.74-4.42-5.2-9.62-.87-1.04-1.48-1.91-1.82-2.6-1.21-3.98-2.34-7.28-3.38-9.88-1.21-2.43-1.82-5.29-1.82-8.58v-2.6c0-3.81,2.34-7.19,7.02-10.14,4.68-2.94,9.18-4.42,13.52-4.42h.78c7.28,0,15.6.52,24.96,1.56h1.04c3.98,0,23.22-1.64,57.71-4.94,34.49-3.29,75.65-9.01,123.49-17.16,5.02-.87,8.06-1.3,9.1-1.3l3.9-.26c13.52-.87,22.83.48,27.95,4.03,5.11,3.56,8.28,10.45,9.49,20.67,0,4.85-2.26,9.53-6.76,14.04-4.51,4.51-8.06,6.94-10.66,7.28Z"/></svg>